<?xml version="1.0" ?><svg viewBox="0 0 64 64" xmlns="http://www.w3.org/2000/svg"><defs><style>.cls-1{fill:#cdd3da;}.cls-2{fill:#ebedf0;}.cls-3{fill:#7fcdee;}.cls-4{fill:#b2e1f5;}.cls-5{fill:#758190;}.cls-6{fill:#acb3bc;}.cls-7{fill:#ed5c58;}.cls-8{fill:#fff;}.cls-9{fill:none;stroke:#000;stroke-linejoin:round;stroke-width:2px;}</style></defs><title/><g data-name="Layer 7" id="Layer_7"><rect class="cls-1" height="44" width="56" x="4" y="14"/><path class="cls-2" d="M4,48.388A41.48,41.48,0,0,0,15.5,50C36.763,50,54,34.106,54,14.5c0-.168-.011-.333-.014-.5H4Z"/><rect class="cls-3" height="10" width="8" x="46" y="18"/><path class="cls-4" d="M46,18V28h5.111a33.1,33.1,0,0,0,2.7-10Z"/><rect class="cls-5" height="12" width="16" x="10" y="46"/><path class="cls-6" d="M10,49.628A42.03,42.03,0,0,0,15.5,50,41.508,41.508,0,0,0,26,48.652V46H10Z"/><rect class="cls-5" height="6" width="60" x="2" y="8"/><path class="cls-6" d="M53.345,8H2v6H53.986A32.926,32.926,0,0,0,53.345,8Z"/><rect class="cls-5" height="12" width="16" x="38" y="46"/><rect class="cls-5" height="4" width="12" x="26" y="54"/><rect class="cls-5" height="4" width="6" x="4" y="54"/><rect class="cls-5" height="4" width="6" x="54" y="54"/><rect class="cls-4" height="10" width="8" x="10" y="18"/><rect class="cls-4" height="10" width="8" x="22" y="18"/><rect class="cls-4" height="10" width="8" x="34" y="18"/><rect class="cls-3" height="10" width="8" x="46" y="32"/><rect class="cls-4" height="10" width="8" x="34" y="32"/><rect class="cls-4" height="10" width="8" x="22" y="32"/><rect class="cls-4" height="10" width="8" x="10" y="32"/><circle class="cls-7" cx="32" cy="11" r="9"/><polygon class="cls-8" points="37 9 34 9 34 6 30 6 30 9 27 9 27 13 30 13 30 16 34 16 34 13 37 13 37 9"/><circle class="cls-9" cx="32" cy="11" r="9"/><polygon class="cls-9" points="37 9 34 9 34 6 30 6 30 9 27 9 27 13 30 13 30 16 34 16 34 13 37 13 37 9"/><rect class="cls-5" height="4" width="60" x="2" y="58"/><rect class="cls-9" height="4" width="60" x="2" y="58"/><polyline class="cls-9" points="40.482 8 62 8 62 14 40 14"/><polyline class="cls-9" points="23.515 14 2 14 2 8 23.518 8"/><line class="cls-9" x1="4" x2="4" y1="14" y2="58"/><line class="cls-9" x1="60" x2="60" y1="14" y2="58"/><polyline class="cls-9" points="38 58 38 46 54 46 54 58"/><line class="cls-9" x1="46" x2="46" y1="46" y2="58"/><polyline class="cls-9" points="10 58 10 46 26 46 26 58"/><line class="cls-9" x1="18" x2="18" y1="46" y2="58"/><rect class="cls-9" height="10" width="8" x="10" y="18"/><line class="cls-9" x1="10" x2="18" y1="23" y2="23"/><polyline class="cls-9" points="30 19.775 30 28 22 28 22 18 26.345 18"/><line class="cls-9" x1="22" x2="30" y1="23" y2="23"/><polyline class="cls-9" points="37.657 18 42 18 42 28 34 28 34 19.775"/><line class="cls-9" x1="34" x2="42" y1="23" y2="23"/><rect class="cls-9" height="10" width="8" x="46" y="18"/><line class="cls-9" x1="46" x2="54" y1="23" y2="23"/><rect class="cls-9" height="10" width="8" x="10" y="32"/><line class="cls-9" x1="10" x2="18" y1="37" y2="37"/><rect class="cls-9" height="10" width="8" x="22" y="32"/><line class="cls-9" x1="22" x2="30" y1="37" y2="37"/><rect class="cls-9" height="10" width="8" x="34" y="32"/><line class="cls-9" x1="34" x2="42" y1="37" y2="37"/><rect class="cls-9" height="10" width="8" x="46" y="32"/><line class="cls-9" x1="46" x2="54" y1="37" y2="37"/><line class="cls-9" x1="60" x2="54" y1="54" y2="54"/><line class="cls-9" x1="10" x2="4" y1="54" y2="54"/><line class="cls-9" x1="26" x2="38" y1="54" y2="54"/></g></svg>